<svg width="24" height="24" viewBox="0 0 24 24" fill="none" xmlns="http://www.w3.org/2000/svg">
    <g clip-path="url(#clip0_26_44)">
        <path opacity="0.5" d="M1.75736 22.2426C3.51472 24 6.34314 24 12 24C17.6568 24 20.4853 24 22.2426 22.2426C24 20.4853 24 17.6568 24 12C24 6.34314 24 3.51472 22.2426 1.75736C20.4853 -1.43051e-07 17.6568 0 12 0C6.34314 0 3.51472 -1.43051e-07 1.75736 1.75736C-1.43051e-07 3.51472 0 6.34314 0 12C0 17.6568 -1.43051e-07 20.4853 1.75736 22.2426Z" fill="currentColor"/>
        <path d="M3.8999 7.20005C3.8999 6.703 4.30285 6.30005 4.7999 6.30005H9.5999C10.0969 6.30005 10.4999 6.703 10.4999 7.20005C10.4999 7.69711 10.0969 8.10005 9.5999 8.10005H5.6999V11.1H9.5999C10.0969 11.1 10.4999 11.503 10.4999 12C10.4999 12.4972 10.0969 12.9 9.5999 12.9H5.6999V16.8C5.6999 17.2972 5.29695 17.7 4.7999 17.7C4.30285 17.7 3.8999 17.2972 3.8999 16.8V12V7.20005Z" fill="currentColor"/>
        <path d="M11.4599 6.4801C11.8576 6.18187 12.4217 6.26245 12.7199 6.6601L15.5999 10.5L18.4799 6.6601C18.7781 6.26245 19.3422 6.18187 19.7399 6.4801C20.1376 6.77833 20.2181 7.34245 19.9199 7.7401L16.7249 12L19.9199 16.26C20.2181 16.6577 20.1376 17.2218 19.7399 17.52C19.3422 17.8184 18.7781 17.7377 18.4799 17.3401L15.5999 13.5L12.7199 17.3401C12.4217 17.7377 11.8576 17.8184 11.4599 17.52C11.0622 17.2218 10.9817 16.6577 11.2799 16.26L14.4749 12L11.2799 7.7401C10.9817 7.34245 11.0622 6.77833 11.4599 6.4801Z" fill="currentColor"/>
    </g>
    <defs>
        <clipPath id="clip0_26_44">
            <rect width="24" height="24" fill="white"/>
        </clipPath>
    </defs>
</svg>
